<svg xmlns="http://www.w3.org/2000/svg" xmlns:xlink="http://www.w3.org/1999/xlink" width="360" zoomAndPan="magnify" viewBox="0 0 270 599.999999" height="800" preserveAspectRatio="xMidYMid meet" version="1.0"><defs><g/><clipPath id="fb351128e4"><path d="M 97.359375 261.640625 L 172.359375 261.640625 L 172.359375 336.640625 L 97.359375 336.640625 Z M 97.359375 261.640625 " clip-rule="nonzero"/></clipPath><clipPath id="593342f1c9"><path d="M 97.359375 328.949219 L 172.640625 328.949219 L 172.640625 338.359375 L 97.359375 338.359375 Z M 97.359375 328.949219 " clip-rule="nonzero"/></clipPath><clipPath id="15a3cc580d"><path d="M 102.066406 328.949219 L 167.933594 328.949219 C 170.53125 328.949219 172.640625 331.054688 172.640625 333.652344 C 172.640625 336.253906 170.53125 338.359375 167.933594 338.359375 L 102.066406 338.359375 C 99.46875 338.359375 97.359375 336.253906 97.359375 333.652344 C 97.359375 331.054688 99.46875 328.949219 102.066406 328.949219 Z M 102.066406 328.949219 " clip-rule="nonzero"/></clipPath></defs><g clip-path="url(#fb351128e4)"><path fill="#004aad" d="M 172.628906 299.277344 C 172.628906 300.507812 172.570312 301.738281 172.449219 302.964844 C 172.328125 304.191406 172.148438 305.410156 171.90625 306.617188 C 171.667969 307.828125 171.367188 309.019531 171.011719 310.199219 C 170.652344 311.378906 170.238281 312.539062 169.765625 313.679688 C 169.292969 314.816406 168.769531 315.929688 168.1875 317.015625 C 167.605469 318.105469 166.972656 319.160156 166.289062 320.183594 C 165.601562 321.210938 164.871094 322.199219 164.089844 323.152344 C 163.304688 324.105469 162.480469 325.015625 161.609375 325.886719 C 160.734375 326.757812 159.824219 327.585938 158.871094 328.367188 C 157.917969 329.148438 156.929688 329.882812 155.90625 330.566406 C 154.878906 331.253906 153.824219 331.886719 152.738281 332.464844 C 151.648438 333.046875 150.535156 333.574219 149.398438 334.046875 C 148.257812 334.515625 147.101562 334.933594 145.921875 335.289062 C 144.742188 335.648438 143.546875 335.945312 142.339844 336.1875 C 141.128906 336.429688 139.910156 336.609375 138.683594 336.730469 C 137.457031 336.851562 136.230469 336.910156 134.996094 336.910156 C 133.761719 336.910156 132.535156 336.851562 131.308594 336.730469 C 130.082031 336.609375 128.863281 336.429688 127.652344 336.1875 C 126.445312 335.945312 125.25 335.648438 124.070312 335.289062 C 122.890625 334.933594 121.734375 334.515625 120.59375 334.046875 C 119.453125 333.574219 118.34375 333.046875 117.253906 332.464844 C 116.167969 331.886719 115.113281 331.253906 114.085938 330.566406 C 113.0625 329.882812 112.074219 329.148438 111.121094 328.367188 C 110.167969 327.585938 109.253906 326.757812 108.382812 325.886719 C 107.511719 325.015625 106.6875 324.105469 105.902344 323.152344 C 105.121094 322.199219 104.386719 321.210938 103.703125 320.183594 C 103.019531 319.160156 102.386719 318.105469 101.804688 317.015625 C 101.222656 315.929688 100.699219 314.816406 100.226562 313.679688 C 99.753906 312.539062 99.339844 311.378906 98.980469 310.199219 C 98.625 309.019531 98.324219 307.828125 98.085938 306.617188 C 97.84375 305.410156 97.664062 304.191406 97.542969 302.964844 C 97.421875 301.738281 97.359375 300.507812 97.359375 299.277344 C 97.359375 298.042969 97.421875 296.8125 97.542969 295.585938 C 97.664062 294.359375 97.84375 293.144531 98.085938 291.933594 C 98.324219 290.726562 98.625 289.53125 98.980469 288.351562 C 99.339844 287.171875 99.753906 286.011719 100.226562 284.875 C 100.699219 283.734375 101.222656 282.621094 101.804688 281.535156 C 102.386719 280.449219 103.019531 279.390625 103.703125 278.367188 C 104.386719 277.34375 105.121094 276.351562 105.902344 275.402344 C 106.6875 274.449219 107.511719 273.535156 108.382812 272.664062 C 109.253906 271.792969 110.167969 270.964844 111.121094 270.183594 C 112.074219 269.402344 113.0625 268.667969 114.085938 267.984375 C 115.113281 267.300781 116.167969 266.664062 117.253906 266.085938 C 118.34375 265.503906 119.453125 264.976562 120.59375 264.507812 C 121.734375 264.035156 122.890625 263.621094 124.070312 263.261719 C 125.25 262.902344 126.445312 262.605469 127.652344 262.363281 C 128.863281 262.125 130.082031 261.941406 131.308594 261.824219 C 132.535156 261.703125 133.761719 261.640625 134.996094 261.640625 C 136.230469 261.640625 137.457031 261.703125 138.683594 261.824219 C 139.910156 261.941406 141.128906 262.125 142.339844 262.363281 C 143.546875 262.605469 144.742188 262.902344 145.921875 263.261719 C 147.101562 263.621094 148.257812 264.035156 149.398438 264.507812 C 150.535156 264.976562 151.648438 265.503906 152.738281 266.085938 C 153.824219 266.664062 154.878906 267.300781 155.90625 267.984375 C 156.929688 268.667969 157.917969 269.402344 158.871094 270.183594 C 159.824219 270.964844 160.734375 271.792969 161.609375 272.664062 C 162.480469 273.535156 163.304688 274.449219 164.089844 275.402344 C 164.871094 276.351562 165.601562 277.34375 166.289062 278.367188 C 166.972656 279.390625 167.605469 280.449219 168.1875 281.535156 C 168.769531 282.621094 169.292969 283.734375 169.765625 284.875 C 170.238281 286.011719 170.652344 287.171875 171.011719 288.351562 C 171.367188 289.53125 171.667969 290.726562 171.90625 291.933594 C 172.148438 293.144531 172.328125 294.359375 172.449219 295.585938 C 172.570312 296.8125 172.628906 298.042969 172.628906 299.277344 Z M 172.628906 299.277344 " fill-opacity="1" fill-rule="nonzero"/></g><path fill="#ffffff" d="M 135.296875 275.566406 C 133.640625 275.566406 132.210938 275.792969 131.007812 276.167969 C 129.726562 276.542969 128.75 277.070312 127.84375 277.824219 C 127.015625 278.5 126.339844 279.40625 125.964844 280.382812 C 125.511719 281.363281 125.363281 282.492188 125.363281 283.621094 C 125.363281 284.449219 125.511719 285.277344 125.738281 286.105469 C 125.964844 286.933594 126.492188 287.757812 127.242188 288.585938 C 127.996094 289.414062 129.050781 290.320312 130.480469 291.222656 C 131.910156 292.125 133.792969 293.105469 136.277344 294.15625 C 139.0625 295.4375 141.394531 296.640625 143.351562 297.769531 C 145.308594 298.898438 146.8125 300.105469 148.019531 301.308594 C 149.222656 302.511719 150.125 303.941406 150.652344 305.523438 C 151.179688 307.105469 151.480469 308.910156 151.480469 311.09375 C 151.480469 312.75 151.179688 314.40625 150.5 315.984375 C 149.824219 317.640625 148.84375 319.070312 147.492188 320.425781 C 146.136719 321.707031 144.480469 322.761719 142.449219 323.589844 C 140.265625 324.414062 137.929688 324.867188 135.222656 324.867188 C 132.210938 324.867188 129.652344 324.566406 127.621094 324.039062 C 125.585938 323.511719 123.929688 322.761719 122.652344 321.855469 C 121.371094 320.953125 120.542969 319.976562 119.941406 318.847656 C 119.414062 317.71875 119.113281 316.585938 119.113281 315.457031 C 119.113281 314.707031 119.265625 314.027344 119.492188 313.351562 C 119.714844 312.675781 120.015625 312.148438 120.46875 311.621094 C 120.921875 311.09375 121.449219 310.71875 122.125 310.492188 C 122.800781 310.191406 123.480469 310.039062 124.308594 310.039062 C 125.058594 310.039062 125.738281 310.191406 126.339844 310.414062 C 126.941406 310.640625 127.46875 311.019531 127.921875 311.46875 C 128.371094 311.921875 128.671875 312.449219 128.898438 313.050781 C 129.125 313.652344 129.277344 314.328125 129.277344 315.007812 C 129.277344 316.585938 128.824219 317.867188 127.84375 318.695312 C 126.867188 319.523438 125.738281 319.898438 124.234375 319.898438 L 124.234375 320.050781 C 124.382812 320.199219 124.683594 320.5 125.136719 320.804688 C 125.585938 321.105469 126.265625 321.480469 127.09375 321.78125 C 127.921875 322.082031 128.972656 322.382812 130.179688 322.609375 C 131.382812 322.835938 132.8125 322.984375 134.46875 322.984375 C 135.824219 322.984375 137.179688 322.835938 138.535156 322.457031 C 139.886719 322.082031 141.09375 321.554688 142.148438 320.878906 C 143.199219 320.199219 144.105469 319.371094 144.707031 318.394531 C 145.382812 317.414062 145.683594 316.285156 145.683594 315.082031 C 145.683594 314.027344 145.457031 313.050781 145.082031 312.148438 C 144.707031 311.242188 143.953125 310.339844 142.898438 309.363281 C 141.84375 308.382812 140.339844 307.40625 138.457031 306.351562 C 136.578125 305.296875 134.09375 304.019531 131.007812 302.664062 C 128.75 301.683594 126.867188 300.628906 125.4375 299.5 C 124.007812 298.371094 122.878906 297.167969 122.050781 295.8125 C 121.222656 294.535156 120.621094 293.179688 120.320312 291.75 C 120.015625 290.320312 119.867188 288.886719 119.867188 287.457031 C 119.867188 285.578125 120.242188 283.84375 120.921875 282.191406 C 121.597656 280.535156 122.578125 279.105469 123.929688 277.824219 C 125.210938 276.621094 126.867188 275.566406 128.75 274.886719 C 130.628906 274.136719 132.8125 273.757812 135.296875 273.757812 C 137.628906 273.757812 139.664062 274.0625 141.46875 274.585938 C 143.199219 275.113281 144.628906 275.867188 145.757812 276.769531 C 146.886719 277.671875 147.714844 278.726562 148.320312 279.929688 C 148.921875 281.136719 149.148438 282.339844 149.148438 283.695312 C 149.148438 284.371094 148.996094 285.050781 148.769531 285.652344 C 148.542969 286.253906 148.242188 286.855469 147.792969 287.308594 C 147.339844 287.757812 146.8125 288.136719 146.210938 288.4375 C 145.609375 288.738281 144.929688 288.738281 144.105469 288.738281 C 143.351562 288.738281 142.671875 288.585938 142.070312 288.363281 C 141.46875 288.136719 140.941406 287.757812 140.492188 287.308594 C 140.039062 286.855469 139.738281 286.328125 139.4375 285.800781 C 139.210938 285.199219 139.0625 284.597656 139.0625 283.84375 C 139.0625 283.019531 139.210938 282.339844 139.4375 281.738281 C 139.738281 281.136719 140.113281 280.609375 140.566406 280.15625 C 141.015625 279.707031 141.621094 279.40625 142.222656 279.179688 C 142.824219 278.953125 143.578125 278.878906 144.253906 278.878906 L 144.253906 278.726562 C 144.105469 278.578125 143.878906 278.277344 143.425781 277.972656 C 143.050781 277.597656 142.449219 277.296875 141.695312 276.921875 C 140.941406 276.542969 140.039062 276.242188 138.984375 276.019531 C 138.007812 275.714844 136.726562 275.566406 135.296875 275.566406 Z M 135.296875 275.566406 " fill-opacity="1" fill-rule="nonzero"/><g clip-path="url(#593342f1c9)"><g clip-path="url(#15a3cc580d)"><path fill="#004aad" d="M 97.359375 328.949219 L 172.640625 328.949219 L 172.640625 338.359375 L 97.359375 338.359375 Z M 97.359375 328.949219 " fill-opacity="1" fill-rule="nonzero"/></g></g><g fill="#ffffff" fill-opacity="1"><g transform="translate(126.343134, 335.622217)"><g><path d="M 2.8125 -1.09375 C 2.8125 -0.738281 2.679688 -0.457031 2.421875 -0.25 C 2.171875 -0.0507812 1.816406 0.046875 1.359375 0.046875 C 0.941406 0.046875 0.570312 -0.03125 0.25 -0.1875 L 0.25 -0.953125 C 0.519531 -0.835938 0.742188 -0.753906 0.921875 -0.703125 C 1.109375 -0.660156 1.273438 -0.640625 1.421875 -0.640625 C 1.609375 -0.640625 1.75 -0.671875 1.84375 -0.734375 C 1.945312 -0.804688 2 -0.910156 2 -1.046875 C 2 -1.128906 1.972656 -1.195312 1.921875 -1.25 C 1.878906 -1.3125 1.816406 -1.367188 1.734375 -1.421875 C 1.648438 -1.484375 1.484375 -1.570312 1.234375 -1.6875 C 0.992188 -1.800781 0.8125 -1.910156 0.6875 -2.015625 C 0.570312 -2.117188 0.476562 -2.238281 0.40625 -2.375 C 0.332031 -2.519531 0.296875 -2.679688 0.296875 -2.859375 C 0.296875 -3.210938 0.410156 -3.488281 0.640625 -3.6875 C 0.878906 -3.882812 1.207031 -3.984375 1.625 -3.984375 C 1.832031 -3.984375 2.023438 -3.957031 2.203125 -3.90625 C 2.390625 -3.863281 2.585938 -3.796875 2.796875 -3.703125 L 2.53125 -3.0625 C 2.3125 -3.144531 2.132812 -3.203125 2 -3.234375 C 1.863281 -3.273438 1.726562 -3.296875 1.59375 -3.296875 C 1.4375 -3.296875 1.316406 -3.253906 1.234375 -3.171875 C 1.148438 -3.097656 1.109375 -3.003906 1.109375 -2.890625 C 1.109375 -2.816406 1.125 -2.753906 1.15625 -2.703125 C 1.195312 -2.648438 1.253906 -2.597656 1.328125 -2.546875 C 1.398438 -2.492188 1.578125 -2.398438 1.859375 -2.265625 C 2.222656 -2.085938 2.472656 -1.910156 2.609375 -1.734375 C 2.742188 -1.554688 2.8125 -1.34375 2.8125 -1.09375 Z M 2.8125 -1.09375 "/></g></g></g><g fill="#ffffff" fill-opacity="1"><g transform="translate(129.370989, 335.622217)"><g><path d="M 1.6875 -0.59375 C 1.832031 -0.59375 2.003906 -0.625 2.203125 -0.6875 L 2.203125 -0.078125 C 2.003906 0.00390625 1.753906 0.046875 1.453125 0.046875 C 1.128906 0.046875 0.890625 -0.03125 0.734375 -0.1875 C 0.585938 -0.351562 0.515625 -0.601562 0.515625 -0.9375 L 0.515625 -2.390625 L 0.125 -2.390625 L 0.125 -2.734375 L 0.578125 -3.015625 L 0.8125 -3.640625 L 1.34375 -3.640625 L 1.34375 -3 L 2.171875 -3 L 2.171875 -2.390625 L 1.34375 -2.390625 L 1.34375 -0.9375 C 1.34375 -0.820312 1.375 -0.734375 1.4375 -0.671875 C 1.5 -0.617188 1.582031 -0.59375 1.6875 -0.59375 Z M 1.6875 -0.59375 "/></g></g></g><g fill="#ffffff" fill-opacity="1"><g transform="translate(131.757305, 335.622217)"><g><path d="M 1.078125 -1.5 C 1.078125 -1.207031 1.125 -0.984375 1.21875 -0.828125 C 1.320312 -0.679688 1.484375 -0.609375 1.703125 -0.609375 C 1.921875 -0.609375 2.078125 -0.679688 2.171875 -0.828125 C 2.273438 -0.984375 2.328125 -1.207031 2.328125 -1.5 C 2.328125 -1.800781 2.273438 -2.023438 2.171875 -2.171875 C 2.078125 -2.316406 1.921875 -2.390625 1.703125 -2.390625 C 1.484375 -2.390625 1.320312 -2.316406 1.21875 -2.171875 C 1.125 -2.023438 1.078125 -1.800781 1.078125 -1.5 Z M 3.15625 -1.5 C 3.15625 -1.019531 3.023438 -0.640625 2.765625 -0.359375 C 2.515625 -0.0859375 2.15625 0.046875 1.6875 0.046875 C 1.40625 0.046875 1.15625 -0.015625 0.9375 -0.140625 C 0.71875 -0.265625 0.546875 -0.441406 0.421875 -0.671875 C 0.304688 -0.910156 0.25 -1.1875 0.25 -1.5 C 0.25 -2 0.375 -2.382812 0.625 -2.65625 C 0.882812 -2.925781 1.242188 -3.0625 1.703125 -3.0625 C 1.992188 -3.0625 2.25 -3 2.46875 -2.875 C 2.6875 -2.75 2.851562 -2.566406 2.96875 -2.328125 C 3.09375 -2.097656 3.15625 -1.820312 3.15625 -1.5 Z M 3.15625 -1.5 "/></g></g></g><g fill="#ffffff" fill-opacity="1"><g transform="translate(135.160958, 335.622217)"><g><path d="M 1.21875 -1.640625 L 1.578125 -2.09375 L 2.421875 -3 L 3.34375 -3 L 2.140625 -1.703125 L 3.40625 0 L 2.46875 0 L 1.59375 -1.21875 L 1.25 -0.9375 L 1.25 0 L 0.4375 0 L 0.4375 -4.171875 L 1.25 -4.171875 L 1.25 -2.3125 L 1.203125 -1.640625 Z M 1.21875 -1.640625 "/></g></g></g><g fill="#ffffff" fill-opacity="1"><g transform="translate(138.569979, 335.622217)"><g><path d="M 0.390625 -3.78125 C 0.390625 -4.039062 0.539062 -4.171875 0.84375 -4.171875 C 1.132812 -4.171875 1.28125 -4.039062 1.28125 -3.78125 C 1.28125 -3.65625 1.242188 -3.554688 1.171875 -3.484375 C 1.097656 -3.410156 0.988281 -3.375 0.84375 -3.375 C 0.539062 -3.375 0.390625 -3.507812 0.390625 -3.78125 Z M 1.25 0 L 0.4375 0 L 0.4375 -3 L 1.25 -3 Z M 1.25 0 "/></g></g></g><g fill="#ffffff" fill-opacity="1"><g transform="translate(140.247648, 335.622217)"><g><path d="M 1.078125 -1.5 C 1.078125 -1.207031 1.125 -0.984375 1.21875 -0.828125 C 1.320312 -0.679688 1.484375 -0.609375 1.703125 -0.609375 C 1.921875 -0.609375 2.078125 -0.679688 2.171875 -0.828125 C 2.273438 -0.984375 2.328125 -1.207031 2.328125 -1.5 C 2.328125 -1.800781 2.273438 -2.023438 2.171875 -2.171875 C 2.078125 -2.316406 1.921875 -2.390625 1.703125 -2.390625 C 1.484375 -2.390625 1.320312 -2.316406 1.21875 -2.171875 C 1.125 -2.023438 1.078125 -1.800781 1.078125 -1.5 Z M 3.15625 -1.5 C 3.15625 -1.019531 3.023438 -0.640625 2.765625 -0.359375 C 2.515625 -0.0859375 2.15625 0.046875 1.6875 0.046875 C 1.40625 0.046875 1.15625 -0.015625 0.9375 -0.140625 C 0.71875 -0.265625 0.546875 -0.441406 0.421875 -0.671875 C 0.304688 -0.910156 0.25 -1.1875 0.25 -1.5 C 0.25 -2 0.375 -2.382812 0.625 -2.65625 C 0.882812 -2.925781 1.242188 -3.0625 1.703125 -3.0625 C 1.992188 -3.0625 2.25 -3 2.46875 -2.875 C 2.6875 -2.75 2.851562 -2.566406 2.96875 -2.328125 C 3.09375 -2.097656 3.15625 -1.820312 3.15625 -1.5 Z M 3.15625 -1.5 "/></g></g></g></svg>